<?xml version="1.0" standalone="no"?>
<!DOCTYPE svg PUBLIC "-//W3C//DTD SVG 20010904//EN"
 "http://www.w3.org/TR/2001/REC-SVG-20010904/DTD/svg10.dtd">
<svg version="1.0" xmlns="http://www.w3.org/2000/svg"
 width="55.000000pt" height="55.000000pt" viewBox="0 0 55.000000 55.000000"
 preserveAspectRatio="xMidYMid meet">

<g transform="translate(0.000000,55.000000) scale(0.100000,-0.100000)"
fill="#000000" stroke="none">
<path d="M154 526 c-57 -27 -109 -78 -136 -134 -25 -52 -24 -176 1 -234 27
-60 92 -123 148 -142 64 -22 170 -21 225 3 55 23 120 93 143 154 23 61 17 184
-13 240 -64 121 -238 174 -368 113z m116 -13 c0 -14 -12 -72 -27 -127 l-27
-101 -8 45 c-11 66 -35 112 -70 137 l-32 22 55 26 c30 13 66 25 82 25 23 0 27
-4 27 -27z m106 7 c48 -22 124 -85 124 -103 0 -6 7 -18 16 -28 8 -9 18 -43 21
-75 6 -53 5 -57 -13 -50 -46 18 -116 24 -204 17 -52 -4 -96 -7 -97 -7 -1 1 12
48 28 105 16 58 29 117 29 133 0 23 4 28 26 28 14 0 45 -9 70 -20z m-237 -66
c43 -36 80 -171 53 -188 -5 -3 -40 -10 -78 -16 -38 -6 -77 -13 -86 -16 -16 -5
-18 2 -18 56 0 37 6 73 17 93 19 37 65 97 75 97 3 0 20 -12 37 -26z m369 -200
c31 -12 33 -16 27 -45 -17 -75 -81 -151 -149 -178 -92 -36 -217 -20 -280 35
l-29 25 35 32 c18 18 43 46 56 62 l21 30 1 -33 c0 -32 33 -107 64 -147 27 -35
17 -9 -20 51 -31 52 -35 65 -31 111 2 29 7 56 11 60 10 10 162 21 216 15 25
-2 60 -11 78 -18z m-318 -12 c0 -17 -73 -108 -100 -125 l-30 -19 -24 53 c-15
33 -20 58 -15 64 5 5 39 14 77 21 84 15 92 16 92 6z"/>
<path d="M320 419 c-12 -8 -10 -9 8 -4 30 9 42 -21 16 -40 -18 -13 -18 -14 -1
-15 23 0 34 -29 16 -41 -20 -13 -27 -11 -49 11 -11 11 -20 16 -20 10 0 -15 47
-42 67 -38 10 2 22 13 28 26 13 30 35 28 35 -3 0 -14 6 -25 13 -25 8 0 11 17
9 59 -3 51 -1 60 15 64 10 3 -2 5 -27 5 -25 0 -37 -2 -27 -5 13 -3 17 -12 15
-31 -2 -21 -9 -28 -31 -30 -26 -3 -27 -2 -16 16 24 39 -13 68 -51 41z"/>
<path d="M77 403 c-14 -13 -6 -20 17 -16 13 3 27 0 30 -6 5 -7 -2 -11 -17 -11
-29 0 -50 -22 -45 -47 2 -14 13 -18 46 -19 l42 -2 0 42 c0 23 -5 47 -12 54
-13 13 -50 16 -61 5z m51 -65 c-7 -20 -48 -23 -48 -4 0 11 9 16 26 16 16 0 24
-5 22 -12z"/>
<path d="M331 248 c-1 -12 -10 -18 -28 -19 -24 -2 -25 -2 -5 -6 29 -6 28 -28
-3 -65 -35 -42 -29 -63 17 -64 21 -1 36 1 35 5 -3 12 37 71 49 71 7 0 14 -7
18 -15 6 -17 -2 -45 -13 -45 -4 0 -16 -7 -27 -15 -17 -13 -17 -14 -1 -15 22 0
57 35 57 59 0 10 -11 30 -25 45 -14 15 -25 22 -25 17 0 -6 -9 -11 -20 -11 -11
0 -20 7 -20 15 0 10 11 15 35 15 19 0 35 4 35 9 0 6 -15 7 -34 4 -28 -4 -35
-2 -39 13 -4 17 -5 17 -6 2z m39 -75 c0 -5 -7 -17 -15 -27 -14 -19 -15 -19
-15 7 0 17 5 27 15 27 8 0 15 -3 15 -7z m-50 -38 c0 -16 -6 -25 -15 -25 -18 0
-20 21 -3 38 17 17 18 16 18 -13z"/>
</g>
</svg>
